<?xml version="1.0" standalone="no"?>
<!DOCTYPE svg PUBLIC "-//W3C//DTD SVG 1.1//EN" "http://www.w3.org/Graphics/SVG/1.1/DTD/svg11.dtd" >
<svg xmlns="http://www.w3.org/2000/svg" xmlns:xlink="http://www.w3.org/1999/xlink" version="1.1">
<metadata>
Created by FontForge 20161013 at Wed Jan 14 10:07:58 2015
 By ,,,
(c) 2014 Apple Inc. All rights reserved.
</metadata>
<defs>
<font id="SanFranciscoDisplay-Semibold" horiz-adv-x="1241" >
  <font-face 
    font-family="San Francisco Display SemBd"
    font-weight="600"
    font-stretch="normal"
    units-per-em="2048"
    panose-1="0 0 0 0 0 0 0 0 0 0"
    ascent="1638"
    descent="-410"
    bbox="17 -388 1531 1995"
    underline-thickness="50"
    underline-position="-175"
    unicode-range="U+0020-20AB"
  />
<missing-glyph horiz-adv-x="1293" 
d="M120 0v1365h1053v-1365h-1053zM501 313q0 -47 33.5 -77t86.5 -30q55 0 88.5 29.5t33.5 77.5q0 49 -33.5 78.5t-88.5 29.5q-54 0 -87 -30t-33 -78zM339 888h169q1 59 34.5 94.5t90.5 35.5q54 0 87 -30t33 -80q0 -38 -20.5 -65.5t-82.5 -72.5q-69 -48 -96 -100t-22 -121
l1 -18h166v15q0 48 19 76t88 77q73 52 103 102t30 116q0 113 -81 181.5t-215 68.5q-143 0 -225.5 -76t-78.5 -203z" />
    <glyph glyph-name=".notdef" horiz-adv-x="1293" 
d="M120 0v1365h1053v-1365h-1053zM501 313q0 -47 33.5 -77t86.5 -30q55 0 88.5 29.5t33.5 77.5q0 49 -33.5 78.5t-88.5 29.5q-54 0 -87 -30t-33 -78zM339 888h169q1 59 34.5 94.5t90.5 35.5q54 0 87 -30t33 -80q0 -38 -20.5 -65.5t-82.5 -72.5q-69 -48 -96 -100t-22 -121
l1 -18h166v15q0 48 19 76t88 77q73 52 103 102t30 116q0 113 -81 181.5t-215 68.5q-143 0 -225.5 -76t-78.5 -203z" />
    <glyph glyph-name=".null" horiz-adv-x="0" 
 />
    <glyph glyph-name="nonmarkingreturn" horiz-adv-x="682" 
 />
    <glyph glyph-name="CR" horiz-adv-x="0" 
 />
    <glyph glyph-name="space" unicode=" " horiz-adv-x="405" 
 />
    <glyph glyph-name="Abreve" unicode="&#x102;" 
d="M261 0h-244l466 1365h275l465 -1365h-259l-116 368h-471zM618 1120h-9l-179 -568h366zM291 1760h146q0 -60 49.5 -100.5t133.5 -40.5t133.5 40.5t49.5 100.5h144q0 -119 -82.5 -198t-244.5 -79t-245.5 79t-83.5 198z" />
    <glyph glyph-name="abreve" unicode="&#x103;" horiz-adv-x="1086" 
d="M722 136q-38 -67 -111.5 -109.5t-182.5 -42.5q-156 0 -251.5 86.5t-95.5 233.5q0 144 97.5 228t277.5 84h264v112q0 160 -187 160q-173 0 -188 -147h-225q4 71 29 129.5t73.5 105.5t130 73t188.5 26q194 0 304 -85.5t110 -266.5v-723h-223v136h-10zM502 162
q93 0 155.5 55t62.5 138v108h-220q-90 0 -136.5 -39.5t-46.5 -105.5q0 -76 54 -116t131 -40zM228 1461h145q0 -69 41.5 -116.5t121.5 -47.5t121.5 47.5t41.5 116.5h144q0 -56 -19.5 -108t-55.5 -95t-96.5 -68.5t-135.5 -25.5q-99 0 -171 44.5t-105 110.5t-32 142z" />
    <glyph glyph-name="Adotbelow" unicode="&#x1ea0;" 
d="M261 0h-244l466 1365h275l465 -1365h-259l-116 368h-471zM618 1120h-9l-179 -568h366zM501 -267q0 53 35 88.5t85 35.5q54 0 90 -35.5t36 -88.5q0 -52 -36 -86.5t-90 -34.5q-50 0 -85 35t-35 86z" />
    <glyph glyph-name="adotbelow" unicode="&#x1ea1;" horiz-adv-x="1086" 
d="M722 136q-38 -67 -111.5 -109.5t-182.5 -42.5q-156 0 -251.5 86.5t-95.5 233.5q0 144 97.5 228t277.5 84h264v112q0 160 -187 160q-173 0 -188 -147h-225q4 71 29 129.5t73.5 105.5t130 73t188.5 26q194 0 304 -85.5t110 -266.5v-723h-223v136h-10zM502 162
q93 0 155.5 55t62.5 138v108h-220q-90 0 -136.5 -39.5t-46.5 -105.5q0 -76 54 -116t131 -40zM423 -267q0 53 35 88.5t85 35.5q54 0 90 -35.5t36 -88.5q0 -52 -36 -86.5t-90 -34.5q-50 0 -85 35t-35 86z" />
    <glyph glyph-name="Ahookabove" unicode="&#x1ea2;" 
d="M261 0h-244l466 1365h275l465 -1365h-259l-116 368h-471zM618 1120h-9l-179 -568h366zM478 1664v106q44 17 107 17q95 0 153 -42.5t58 -120.5q0 -111 -146 -170l-74 88q34 10 59 29t25 44q0 60 -92 60q-50 0 -90 -11z" />
    <glyph glyph-name="ahookabove" unicode="&#x1ea3;" horiz-adv-x="1086" 
d="M722 136q-38 -67 -111.5 -109.5t-182.5 -42.5q-156 0 -251.5 86.5t-95.5 233.5q0 144 97.5 228t277.5 84h264v112q0 160 -187 160q-173 0 -188 -147h-225q4 71 29 129.5t73.5 105.5t130 73t188.5 26q194 0 304 -85.5t110 -266.5v-723h-223v136h-10zM502 162
q93 0 155.5 55t62.5 138v108h-220q-90 0 -136.5 -39.5t-46.5 -105.5q0 -76 54 -116t131 -40zM404 1436v115q43 18 111 18q104 0 164 -50t60 -137q0 -75 -42.5 -121.5t-121.5 -88.5l-72 93q51 29 73 53.5t22 53.5q0 35 -28 56.5t-73 21.5q-56 0 -93 -14z" />
    <glyph glyph-name="Acircumflexacute" unicode="&#x1ea4;" 
d="M261 0h-244l466 1365h275l465 -1365h-259l-116 368h-471zM618 1120h-9l-179 -568h366zM276 1511l268 240h150l273 -240h-194l-148 134h-10l-145 -134h-194zM827 1709l179 200h198l-263 -235z" />
    <glyph glyph-name="acircumflexacute" unicode="&#x1ea5;" horiz-adv-x="1086" 
d="M722 136q-38 -67 -111.5 -109.5t-182.5 -42.5q-156 0 -251.5 86.5t-95.5 233.5q0 144 97.5 228t277.5 84h264v112q0 160 -187 160q-173 0 -188 -147h-225q4 71 29 129.5t73.5 105.5t130 73t188.5 26q194 0 304 -85.5t110 -266.5v-723h-223v136h-10zM502 162
q93 0 155.5 55t62.5 138v108h-220q-90 0 -136.5 -39.5t-46.5 -105.5q0 -76 54 -116t131 -40zM198 1204l268 240h150l273 -240h-194l-148 134h-10l-145 -134h-194zM749 1402l179 200h198l-263 -235z" />
    <glyph glyph-name="Acircumflexgrave" unicode="&#x1ea6;" 
d="M261 0h-244l466 1365h275l465 -1365h-259l-116 368h-471zM618 1120h-9l-179 -568h366zM1106 1675h-152l-260 234h195zM967 1511h-194l-148 134h-10l-145 -134h-194l268 240h150z" />
    <glyph glyph-name="acircumflexgrave" unicode="&#x1ea7;" horiz-adv-x="1086" 
d="M722 136q-38 -67 -111.5 -109.5t-182.5 -42.5q-156 0 -251.5 86.5t-95.5 233.5q0 144 97.5 228t277.5 84h264v112q0 160 -187 160q-173 0 -188 -147h-225q4 71 29 129.5t73.5 105.5t130 73t188.5 26q194 0 304 -85.5t110 -266.5v-723h-223v136h-10zM502 162
q93 0 155.5 55t62.5 138v108h-220q-90 0 -136.5 -39.5t-46.5 -105.5q0 -76 54 -116t131 -40zM1028 1368h-152l-260 234h195zM889 1204h-194l-148 134h-10l-145 -134h-194l268 240h150z" />
    <glyph glyph-name="Acircumflexhookabove" unicode="&#x1ea8;" 
d="M261 0h-244l466 1365h275l465 -1365h-259l-116 368h-471zM618 1120h-9l-179 -568h366zM275 1504l269 227h149l273 -227h-194l-147 124h-11l-145 -124h-194zM763 1954q44 7 90 7q87 0 138.5 -37.5t51.5 -107.5q0 -51 -33 -92.5t-82 -69.5l-70 74q50 33 50 70q0 28 -22 43
t-60 15q-35 0 -63 -4v102z" />
    <glyph glyph-name="acircumflexhookabove" unicode="&#x1ea9;" horiz-adv-x="1086" 
d="M722 136q-38 -67 -111.5 -109.5t-182.5 -42.5q-156 0 -251.5 86.5t-95.5 233.5q0 144 97.5 228t277.5 84h264v112q0 160 -187 160q-173 0 -188 -147h-225q4 71 29 129.5t73.5 105.5t130 73t188.5 26q194 0 304 -85.5t110 -266.5v-723h-223v136h-10zM502 162
q93 0 155.5 55t62.5 138v108h-220q-90 0 -136.5 -39.5t-46.5 -105.5q0 -76 54 -116t131 -40zM197 1197l269 227h149l273 -227h-194l-147 124h-11l-145 -124h-194zM685 1647q44 7 90 7q87 0 138.5 -37.5t51.5 -107.5q0 -51 -33 -92.5t-82 -69.5l-70 74q50 33 50 70
q0 28 -22 43t-60 15q-35 0 -63 -4v102z" />
    <glyph glyph-name="Acircumflextilde" unicode="&#x1eaa;" 
d="M261 0h-244l466 1365h275l465 -1365h-259l-116 368h-471zM618 1120h-9l-179 -568h366zM278 1498l268 231h150l273 -231h-194l-148 131h-10l-145 -131h-194zM449 1792h-133q0 80 48.5 141.5t136.5 61.5q48 0 81 -15.5t70 -48.5q5 -4 16 -14t16.5 -14t15 -10t18.5 -8.5
t19 -2.5q33 0 49 30.5t18 68.5h133q0 -86 -52 -146t-135 -60q-56 0 -87.5 14t-61.5 42q-2 2 -9 8.5t-9.5 8.5t-9 8t-10.5 8t-10.5 6t-11.5 5.5t-11.5 3t-13.5 1.5q-63 0 -67 -88z" />
    <glyph glyph-name="acircumflextilde" unicode="&#x1eab;" horiz-adv-x="1086" 
d="M722 136q-38 -67 -111.5 -109.5t-182.5 -42.5q-156 0 -251.5 86.5t-95.5 233.5q0 144 97.5 228t277.5 84h264v112q0 160 -187 160q-173 0 -188 -147h-225q4 71 29 129.5t73.5 105.5t130 73t188.5 26q194 0 304 -85.5t110 -266.5v-723h-223v136h-10zM502 162
q93 0 155.5 55t62.5 138v108h-220q-90 0 -136.5 -39.5t-46.5 -105.5q0 -76 54 -116t131 -40zM200 1191l268 231h150l273 -231h-194l-148 131h-10l-145 -131h-194zM371 1485h-133q0 80 48.5 141.5t136.5 61.5q48 0 81 -15.5t70 -48.5q5 -4 16 -14t16.5 -14t15 -10t18.5 -8.5
t19 -2.5q33 0 49 30.5t18 68.5h133q0 -86 -52 -146t-135 -60q-56 0 -87.5 14t-61.5 42q-2 2 -9 8.5t-9.5 8.5t-9 8t-10.5 8t-10.5 6t-11.5 5.5t-11.5 3t-13.5 1.5q-63 0 -67 -88z" />
    <glyph glyph-name="Acircumflexdotbelow" unicode="&#x1eac;" 
d="M261 0h-244l466 1365h275l465 -1365h-259l-116 368h-471zM618 1120h-9l-179 -568h366zM501 -267q0 53 35 88.5t85 35.5q54 0 90 -35.5t36 -88.5q0 -52 -36 -86.5t-90 -34.5q-50 0 -85 35t-35 86zM277 1502l273 240h149l269 -240h-194l-145 134h-11l-147 -134h-194z" />
    <glyph glyph-name="acircumflexdotbelow" unicode="&#x1ead;" horiz-adv-x="1086" 
d="M722 136q-38 -67 -111.5 -109.5t-182.5 -42.5q-156 0 -251.5 86.5t-95.5 233.5q0 144 97.5 228t277.5 84h264v112q0 160 -187 160q-173 0 -188 -147h-225q4 71 29 129.5t73.5 105.5t130 73t188.5 26q194 0 304 -85.5t110 -266.5v-723h-223v136h-10zM502 162
q93 0 155.5 55t62.5 138v108h-220q-90 0 -136.5 -39.5t-46.5 -105.5q0 -76 54 -116t131 -40zM238 1221l221 302h162l211 -303h-185l-105 182h-7l-115 -181h-182zM423 -267q0 53 35 88.5t85 35.5q54 0 90 -35.5t36 -88.5q0 -52 -36 -86.5t-90 -34.5q-50 0 -85 35t-35 86z" />
    <glyph glyph-name="Abreveacute" unicode="&#x1eae;" 
d="M261 0h-244l466 1365h275l465 -1365h-259l-116 368h-471zM618 1120h-9l-179 -568h366zM918 1728q0 -107 -77 -179.5t-221 -72.5t-223 72t-79 180h141q2 -55 44 -90t117 -35q77 0 119.5 34.5t42.5 90.5h136zM512 1732l238 237h201l-265 -237h-174z" />
    <glyph glyph-name="abreveacute" unicode="&#x1eaf;" horiz-adv-x="1086" 
d="M722 136q-38 -67 -111.5 -109.5t-182.5 -42.5q-156 0 -251.5 86.5t-95.5 233.5q0 144 97.5 228t277.5 84h264v112q0 160 -187 160q-173 0 -188 -147h-225q4 71 29 129.5t73.5 105.5t130 73t188.5 26q194 0 304 -85.5t110 -266.5v-723h-223v136h-10zM502 162
q93 0 155.5 55t62.5 138v108h-220q-90 0 -136.5 -39.5t-46.5 -105.5q0 -76 54 -116t131 -40zM840 1421q0 -107 -77 -179.5t-221 -72.5t-223 72t-79 180h141q2 -55 44 -90t117 -35q77 0 119.5 34.5t42.5 90.5h136zM434 1425l238 237h201l-265 -237h-174z" />
    <glyph glyph-name="Abrevegrave" unicode="&#x1eb0;" 
d="M261 0h-244l466 1365h275l465 -1365h-259l-116 368h-471zM618 1120h-9l-179 -568h366zM917 1728q0 -107 -77 -179.5t-220 -72.5q-144 0 -224 72t-80 180h143q0 -55 42 -90t119 -35q76 0 118.5 35t43.5 90h135zM740 1732h-174l-271 237h207z" />
    <glyph glyph-name="abrevegrave" unicode="&#x1eb1;" horiz-adv-x="1086" 
d="M722 136q-38 -67 -111.5 -109.5t-182.5 -42.5q-156 0 -251.5 86.5t-95.5 233.5q0 144 97.5 228t277.5 84h264v112q0 160 -187 160q-173 0 -188 -147h-225q4 71 29 129.5t73.5 105.5t130 73t188.5 26q194 0 304 -85.5t110 -266.5v-723h-223v136h-10zM502 162
q93 0 155.5 55t62.5 138v108h-220q-90 0 -136.5 -39.5t-46.5 -105.5q0 -76 54 -116t131 -40zM839 1421q0 -107 -77 -179.5t-220 -72.5q-144 0 -224 72t-80 180h143q0 -55 42 -90t119 -35q76 0 118.5 35t43.5 90h135zM662 1425h-174l-271 237h207z" />
    <glyph glyph-name="Abrevehookabove" unicode="&#x1eb2;" 
d="M261 0h-244l466 1365h275l465 -1365h-259l-116 368h-471zM618 1120h-9l-179 -568h366zM917 1711q0 -103 -76.5 -170t-220.5 -67q-142 0 -222 67.5t-80 171.5h141q0 -49 43 -84t118 -35t118.5 34.5t43.5 82.5h135zM450 1975q45 13 99 13q93 0 149 -39.5t56 -112.5
q0 -52 -41.5 -97.5t-87.5 -58.5l-79 79q24 7 44.5 24t20.5 39q0 26 -27.5 40t-66.5 14q-36 0 -67 -7v106z" />
    <glyph glyph-name="abrevehookabove" unicode="&#x1eb3;" horiz-adv-x="1086" 
d="M722 136q-38 -67 -111.5 -109.5t-182.5 -42.5q-156 0 -251.5 86.5t-95.5 233.5q0 144 97.5 228t277.5 84h264v112q0 160 -187 160q-173 0 -188 -147h-225q4 71 29 129.5t73.5 105.5t130 73t188.5 26q194 0 304 -85.5t110 -266.5v-723h-223v136h-10zM502 162
q93 0 155.5 55t62.5 138v108h-220q-90 0 -136.5 -39.5t-46.5 -105.5q0 -76 54 -116t131 -40zM839 1404q0 -103 -76.5 -170t-220.5 -67q-142 0 -222 67.5t-80 171.5h141q0 -49 43 -84t118 -35t118.5 34.5t43.5 82.5h135zM372 1668q45 13 99 13q93 0 149 -39.5t56 -112.5
q0 -52 -41.5 -97.5t-87.5 -58.5l-79 79q24 7 44.5 24t20.5 39q0 26 -27.5 40t-66.5 14q-36 0 -67 -7v106z" />
    <glyph glyph-name="Abrevetilde" unicode="&#x1eb4;" 
d="M261 0h-244l466 1365h275l465 -1365h-259l-116 368h-471zM618 1120h-9l-179 -568h366zM918 1700q0 -100 -80.5 -166.5t-217.5 -66.5q-138 0 -220 66.5t-82 166.5h141q0 -51 44.5 -83.5t116.5 -32.5t117 32.5t45 83.5h136zM597 1817l-8.5 8.5l-9 9t-8.5 8t-10 8t-10 6.5
t-11 5.5t-11.5 3t-13.5 1.5q-60 0 -66 -87h-135q0 82 50.5 143.5t134.5 61.5q47 0 78 -14.5t67 -47.5q3 -2 13 -12t13 -12.5t12 -9t14 -9t13.5 -4.5t16.5 -2q32 0 48.5 30t18.5 68h133q0 -89 -52.5 -149.5t-133.5 -60.5q-54 0 -84.5 13.5t-58.5 41.5z" />
    <glyph glyph-name="abrevetilde" unicode="&#x1eb5;" horiz-adv-x="1086" 
d="M722 136q-38 -67 -111.5 -109.5t-182.5 -42.5q-156 0 -251.5 86.5t-95.5 233.5q0 144 97.5 228t277.5 84h264v112q0 160 -187 160q-173 0 -188 -147h-225q4 71 29 129.5t73.5 105.5t130 73t188.5 26q194 0 304 -85.5t110 -266.5v-723h-223v136h-10zM502 162
q93 0 155.5 55t62.5 138v108h-220q-90 0 -136.5 -39.5t-46.5 -105.5q0 -76 54 -116t131 -40zM840 1393q0 -100 -80.5 -166.5t-217.5 -66.5q-138 0 -220 66.5t-82 166.5h141q0 -51 44.5 -83.5t116.5 -32.5t117 32.5t45 83.5h136zM519 1510l-8.5 8.5l-9 9t-8.5 8t-10 8
t-10 6.5t-11 5.5t-11.5 3t-13.5 1.5q-60 0 -66 -87h-135q0 82 50.5 143.5t134.5 61.5q47 0 78 -14.5t67 -47.5q3 -2 13 -12t13 -12.5t12 -9t14 -9t13.5 -4.5t16.5 -2q32 0 48.5 30t18.5 68h133q0 -89 -52.5 -149.5t-133.5 -60.5q-54 0 -84.5 13.5t-58.5 41.5z" />
    <glyph glyph-name="Abrevedotbelow" unicode="&#x1eb6;" 
d="M261 0h-244l466 1365h275l465 -1365h-259l-116 368h-471zM618 1120h-9l-179 -568h366zM501 -267q0 53 35 88.5t85 35.5q54 0 90 -35.5t36 -88.5q0 -52 -36 -86.5t-90 -34.5q-50 0 -85 35t-35 86zM291 1760h146q0 -60 49.5 -100.5t133.5 -40.5t133.5 40.5t49.5 100.5h144
q0 -119 -82.5 -198t-244.5 -79t-245.5 79t-83.5 198z" />
    <glyph glyph-name="abrevedotbelow" unicode="&#x1eb7;" horiz-adv-x="1086" 
d="M722 136q-38 -67 -111.5 -109.5t-182.5 -42.5q-156 0 -251.5 86.5t-95.5 233.5q0 144 97.5 228t277.5 84h264v112q0 160 -187 160q-173 0 -188 -147h-225q4 71 29 129.5t73.5 105.5t130 73t188.5 26q194 0 304 -85.5t110 -266.5v-723h-223v136h-10zM502 162
q93 0 155.5 55t62.5 138v108h-220q-90 0 -136.5 -39.5t-46.5 -105.5q0 -76 54 -116t131 -40zM423 -267q0 53 35 88.5t85 35.5q54 0 90 -35.5t36 -88.5q0 -52 -36 -86.5t-90 -34.5q-50 0 -85 35t-35 86zM228 1461h145q0 -69 41.5 -116.5t121.5 -47.5t121.5 47.5t41.5 116.5
h144q0 -56 -19.5 -108t-55.5 -95t-96.5 -68.5t-135.5 -25.5q-99 0 -171 44.5t-105 110.5t-32 142z" />
    <glyph glyph-name="Edotbelow" unicode="&#x1eb8;" horiz-adv-x="1118" 
d="M455 -267q0 53 35 88.5t85 35.5q54 0 90 -35.5t36 -88.5q0 -52 -36 -86.5t-90 -34.5q-50 0 -85 35t-35 86zM1012 202v-202h-862v1365h862v-202h-621v-375h584v-191h-584v-395h621z" />
    <glyph glyph-name="edotbelow" unicode="&#x1eb9;" horiz-adv-x="1089" 
d="M425 -267q0 53 35 88.5t85 35.5q54 0 90 -35.5t36 -88.5q0 -52 -36 -86.5t-90 -34.5q-50 0 -85 35t-35 86zM561 -18q-226 0 -349.5 133.5t-123.5 366.5v89q0 232 122 368.5t337 136.5q219 0 338.5 -137t119.5 -367v-95h-684v-33q0 -117 62 -196t177 -79q91 0 142.5 40
t63.5 101h228q-5 -45 -22.5 -89t-51.5 -88t-81.5 -77t-119.5 -53.5t-158 -20.5zM321 636h454v2q0 114 -61 185t-165 71q-105 0 -166.5 -71.5t-61.5 -184.5v-2z" />
    <glyph glyph-name="Ehookabove" unicode="&#x1eba;" horiz-adv-x="1118" 
d="M1012 202v-202h-862v1365h862v-202h-621v-375h584v-191h-584v-395h621zM432 1664v106q44 17 107 17q95 0 153 -42.5t58 -120.5q0 -111 -146 -170l-74 88q34 10 59 29t25 44q0 60 -92 60q-50 0 -90 -11z" />
    <glyph glyph-name="ehookabove" unicode="&#x1ebb;" horiz-adv-x="1089" 
d="M561 -18q-226 0 -349.5 133.5t-123.5 366.5v89q0 232 122 368.5t337 136.5q219 0 338.5 -137t119.5 -367v-95h-684v-33q0 -117 62 -196t177 -79q91 0 142.5 40t63.5 101h228q-5 -45 -22.5 -89t-51.5 -88t-81.5 -77t-119.5 -53.5t-158 -20.5zM321 636h454v2q0 114 -61 185
t-165 71q-105 0 -166.5 -71.5t-61.5 -184.5v-2zM406 1436v115q43 18 111 18q104 0 164 -50t60 -137q0 -75 -42.5 -121.5t-121.5 -88.5l-72 93q51 29 73 53.5t22 53.5q0 35 -28 56.5t-73 21.5q-56 0 -93 -14z" />
    <glyph glyph-name="Etilde" unicode="&#x1ebc;" horiz-adv-x="1118" 
d="M1012 202v-202h-862v1365h862v-202h-621v-375h584v-191h-584v-395h621zM554 1531q-2 2 -13.5 13t-16 14.5t-14 10t-18.5 9t-19 2.5q-60 0 -64 -88h-128q0 84 45.5 145.5t131.5 61.5q46 0 78.5 -16t68.5 -49q5 -4 18.5 -17.5t19.5 -18t17.5 -9.5t23.5 -5q32 0 47.5 30
t18.5 69h128q0 -84 -50.5 -147t-130.5 -63q-53 0 -83.5 14.5t-59.5 43.5z" />
    <glyph glyph-name="etilde" unicode="&#x1ebd;" horiz-adv-x="1089" 
d="M561 -18q-226 0 -349.5 133.5t-123.5 366.5v89q0 232 122 368.5t337 136.5q219 0 338.5 -137t119.5 -367v-95h-684v-33q0 -117 62 -196t177 -79q91 0 142.5 40t63.5 101h228q-5 -45 -22.5 -89t-51.5 -88t-81.5 -77t-119.5 -53.5t-158 -20.5zM321 636h454v2q0 114 -61 185
t-165 71q-105 0 -166.5 -71.5t-61.5 -184.5v-2zM511 1231l-7 7l-7 7t-7 6.5t-8 7t-7.5 6t-8.5 6t-8.5 4t-9.5 3.5t-9.5 2t-10.5 1q-66 0 -70 -99h-140q0 106 50.5 179t148.5 73q45 0 79.5 -18t73.5 -57q4 -4 13 -13.5t13 -13l12 -10.5t14 -9.5t14 -5t17 -2.5q34 0 50.5 33.5
t19.5 77.5h139q0 -100 -56.5 -176t-146.5 -76q-51 0 -84 17.5t-64 49.5z" />
    <glyph glyph-name="Ecircumflexacute" unicode="&#x1ebe;" horiz-adv-x="1118" 
d="M230 1511l268 240h150l273 -240h-194l-148 134h-10l-145 -134h-194zM781 1709l179 200h198l-263 -235zM1012 202v-202h-862v1365h862v-202h-621v-375h584v-191h-584v-395h621z" />
    <glyph glyph-name="ecircumflexacute" unicode="&#x1ebf;" horiz-adv-x="1089" 
d="M200 1204l268 240h150l273 -240h-194l-148 134h-10l-145 -134h-194zM751 1402l179 200h198l-263 -235zM561 -18q-226 0 -349.5 133.5t-123.5 366.5v89q0 232 122 368.5t337 136.5q219 0 338.5 -137t119.5 -367v-95h-684v-33q0 -117 62 -196t177 -79q91 0 142.5 40
t63.5 101h228q-5 -45 -22.5 -89t-51.5 -88t-81.5 -77t-119.5 -53.5t-158 -20.5zM321 636h454v2q0 114 -61 185t-165 71q-105 0 -166.5 -71.5t-61.5 -184.5v-2z" />
    <glyph glyph-name="Ecircumflexgrave" unicode="&#x1ec0;" horiz-adv-x="1118" 
d="M1060 1675h-152l-260 234h195zM921 1511h-194l-148 134h-10l-145 -134h-194l268 240h150zM1012 202v-202h-862v1365h862v-202h-621v-375h584v-191h-584v-395h621z" />
    <glyph glyph-name="ecircumflexgrave" unicode="&#x1ec1;" horiz-adv-x="1089" 
d="M1030 1368h-152l-260 234h195zM891 1204h-194l-148 134h-10l-145 -134h-194l268 240h150zM561 -18q-226 0 -349.5 133.5t-123.5 366.5v89q0 232 122 368.5t337 136.5q219 0 338.5 -137t119.5 -367v-95h-684v-33q0 -117 62 -196t177 -79q91 0 142.5 40t63.5 101h228
q-5 -45 -22.5 -89t-51.5 -88t-81.5 -77t-119.5 -53.5t-158 -20.5zM321 636h454v2q0 114 -61 185t-165 71q-105 0 -166.5 -71.5t-61.5 -184.5v-2z" />
    <glyph glyph-name="Ecircumflexhookabove" unicode="&#x1ec2;" horiz-adv-x="1118" 
d="M229 1504l269 227h149l273 -227h-194l-147 124h-11l-145 -124h-194zM717 1954q44 7 90 7q87 0 138.5 -37.5t51.5 -107.5q0 -51 -33 -92.5t-82 -69.5l-70 74q50 33 50 70q0 28 -22 43t-60 15q-35 0 -63 -4v102zM1012 202v-202h-862v1365h862v-202h-621v-375h584v-191h-584
v-395h621z" />
    <glyph glyph-name="ecircumflexhookabove" unicode="&#x1ec3;" horiz-adv-x="1089" 
d="M199 1197l269 227h149l273 -227h-194l-147 124h-11l-145 -124h-194zM687 1647q44 7 90 7q87 0 138.5 -37.5t51.5 -107.5q0 -51 -33 -92.5t-82 -69.5l-70 74q50 33 50 70q0 28 -22 43t-60 15q-35 0 -63 -4v102zM561 -18q-226 0 -349.5 133.5t-123.5 366.5v89
q0 232 122 368.5t337 136.5q219 0 338.5 -137t119.5 -367v-95h-684v-33q0 -117 62 -196t177 -79q91 0 142.5 40t63.5 101h228q-5 -45 -22.5 -89t-51.5 -88t-81.5 -77t-119.5 -53.5t-158 -20.5zM321 636h454v2q0 114 -61 185t-165 71q-105 0 -166.5 -71.5t-61.5 -184.5v-2z
" />
    <glyph glyph-name="Ecircumflextilde" unicode="&#x1ec4;" horiz-adv-x="1118" 
d="M1012 202v-202h-862v1365h862v-202h-621v-375h584v-191h-584v-395h621zM232 1498l268 231h150l273 -231h-194l-148 131h-10l-145 -131h-194zM403 1792h-133q0 80 48.5 141.5t136.5 61.5q48 0 81 -15.5t70 -48.5q5 -4 16 -14t16.5 -14t15 -10t18.5 -8.5t19 -2.5
q33 0 49 30.5t18 68.5h133q0 -86 -52 -146t-135 -60q-56 0 -87.5 14t-61.5 42q-2 2 -9 8.5t-9.5 8.5t-9 8t-10.5 8t-10.5 6t-11.5 5.5t-11.5 3t-13.5 1.5q-63 0 -67 -88z" />
    <glyph glyph-name="ecircumflextilde" unicode="&#x1ec5;" horiz-adv-x="1089" 
d="M561 -18q-226 0 -349.5 133.5t-123.5 366.5v89q0 232 122 368.5t337 136.5q219 0 338.5 -137t119.5 -367v-95h-684v-33q0 -117 62 -196t177 -79q91 0 142.5 40t63.5 101h228q-5 -45 -22.5 -89t-51.5 -88t-81.5 -77t-119.5 -53.5t-158 -20.5zM321 636h454v2q0 114 -61 185
t-165 71q-105 0 -166.5 -71.5t-61.5 -184.5v-2zM202 1191l268 231h150l273 -231h-194l-148 131h-10l-145 -131h-194zM373 1485h-133q0 80 48.5 141.5t136.5 61.5q48 0 81 -15.5t70 -48.5q5 -4 16 -14t16.5 -14t15 -10t18.5 -8.5t19 -2.5q33 0 49 30.5t18 68.5h133
q0 -86 -52 -146t-135 -60q-56 0 -87.5 14t-61.5 42q-2 2 -9 8.5t-9.5 8.5t-9 8t-10.5 8t-10.5 6t-11.5 5.5t-11.5 3t-13.5 1.5q-63 0 -67 -88z" />
    <glyph glyph-name="Ecircumflexdotbelow" unicode="&#x1ec6;" horiz-adv-x="1118" 
d="M455 -267q0 53 35 88.5t85 35.5q54 0 90 -35.5t36 -88.5q0 -52 -36 -86.5t-90 -34.5q-50 0 -85 35t-35 86zM231 1502l273 240h149l269 -240h-194l-145 134h-11l-147 -134h-194zM1012 202v-202h-862v1365h862v-202h-621v-375h584v-191h-584v-395h621z" />
    <glyph glyph-name="ecircumflexdotbelow" unicode="&#x1ec7;" horiz-adv-x="1089" 
d="M240 1221l221 302h162l211 -303h-185l-105 182h-7l-115 -181h-182zM561 -18q-226 0 -349.5 133.5t-123.5 366.5v89q0 232 122 368.5t337 136.5q219 0 338.5 -137t119.5 -367v-95h-684v-33q0 -117 62 -196t177 -79q91 0 142.5 40t63.5 101h228q-5 -45 -22.5 -89t-51.5 -88
t-81.5 -77t-119.5 -53.5t-158 -20.5zM321 636h454v2q0 114 -61 185t-165 71q-105 0 -166.5 -71.5t-61.5 -184.5v-2zM425 -267q0 53 35 88.5t85 35.5q54 0 90 -35.5t36 -88.5q0 -52 -36 -86.5t-90 -34.5q-50 0 -85 35t-35 86z" />
    <glyph glyph-name="Ihookabove" unicode="&#x1ec8;" horiz-adv-x="543" 
d="M392 0h-242v1365h242v-1365zM129 1664v106q44 17 107 17q95 0 153 -42.5t58 -120.5q0 -111 -146 -170l-74 88q34 10 59 29t25 44q0 60 -92 60q-50 0 -90 -11z" />
    <glyph glyph-name="ihookabove" unicode="&#x1ec9;" horiz-adv-x="553" 
d="M161 0v1058h240v-1058h-240zM141 1436v115q43 18 111 18q104 0 164 -50t60 -137q0 -75 -42.5 -121.5t-121.5 -88.5l-72 93q51 29 73 53.5t22 53.5q0 35 -28 56.5t-73 21.5q-56 0 -93 -14z" />
    <glyph glyph-name="Idotbelow" unicode="&#x1eca;" horiz-adv-x="543" 
d="M392 0h-242v1365h242v-1365zM152 -267q0 53 35 88.5t85 35.5q54 0 90 -35.5t36 -88.5q0 -52 -36 -86.5t-90 -34.5q-50 0 -85 35t-35 86z" />
    <glyph glyph-name="idotbelow" unicode="&#x1ecb;" horiz-adv-x="554" 
d="M159 0v1058h236v-1058h-236zM135 1320q0 55 39.5 90.5t100.5 35.5q64 0 103.5 -35.5t39.5 -90.5t-39 -90.5t-104 -35.5q-61 0 -100.5 35.5t-39.5 90.5zM157 -267q0 53 35 88.5t85 35.5q54 0 90 -35.5t36 -88.5q0 -52 -36 -86.5t-90 -34.5q-50 0 -85 35t-35 86z" />
    <glyph glyph-name="Odotbelow" unicode="&#x1ecc;" horiz-adv-x="1338" 
d="M549 -267q0 53 35 88.5t85 35.5q54 0 90 -35.5t36 -88.5q0 -52 -36 -86.5t-90 -34.5q-50 0 -85 35t-35 86zM340 770v-185q0 -200 90 -303.5t239 -103.5q148 0 238 103.5t90 303.5v185q0 201 -90.5 309t-237.5 108q-148 0 -238.5 -108t-90.5 -309zM96 586v182
q0 290 154 457t420 167t419 -167t153 -457v-182q0 -288 -153.5 -450.5t-421.5 -162.5q-267 0 -419 162t-152 451z" />
    <glyph glyph-name="odotbelow" unicode="&#x1ecd;" horiz-adv-x="1126" 
d="M444 -267q0 53 35 88.5t85 35.5q54 0 90 -35.5t36 -88.5q0 -52 -36 -86.5t-90 -34.5q-50 0 -85 35t-35 86zM564 1076q232 0 353.5 -137.5t121.5 -369.5v-76q0 -238 -121 -374.5t-354 -136.5t-354.5 136t-121.5 375v75q0 148 51.5 261t160.5 180t264 67zM564 890
q-66 0 -114.5 -27t-74.5 -74.5t-38 -104t-12 -124.5v-61q0 -68 12 -124t38 -103.5t74 -74.5t115 -27q66 0 114 26.5t73.5 74.5t37 104t11.5 124v61q0 69 -11.5 125t-37.5 104t-73.5 74.5t-113.5 26.5z" />
    <glyph glyph-name="Ohookabove" unicode="&#x1ece;" horiz-adv-x="1338" 
d="M526 1664v106q44 17 107 17q95 0 153 -42.5t58 -120.5q0 -111 -146 -170l-74 88q34 10 59 29t25 44q0 60 -92 60q-50 0 -90 -11zM340 770v-185q0 -200 90 -303.5t239 -103.5q148 0 238 103.5t90 303.5v185q0 201 -90.5 309t-237.5 108q-148 0 -238.5 -108t-90.5 -309z
M96 586v182q0 290 154 457t420 167t419 -167t153 -457v-182q0 -288 -153.5 -450.5t-421.5 -162.5q-267 0 -419 162t-152 451z" />
    <glyph glyph-name="ohookabove" unicode="&#x1ecf;" horiz-adv-x="1126" 
d="M564 1076q232 0 353.5 -137.5t121.5 -369.5v-76q0 -238 -121 -374.5t-354 -136.5t-354.5 136t-121.5 375v75q0 148 51.5 261t160.5 180t264 67zM564 890q-66 0 -114.5 -27t-74.5 -74.5t-38 -104t-12 -124.5v-61q0 -68 12 -124t38 -103.5t74 -74.5t115 -27q66 0 114 26.5
t73.5 74.5t37 104t11.5 124v61q0 69 -11.5 125t-37.5 104t-73.5 74.5t-113.5 26.5zM425 1436v115q43 18 111 18q104 0 164 -50t60 -137q0 -75 -42.5 -121.5t-121.5 -88.5l-72 93q51 29 73 53.5t22 53.5q0 35 -28 56.5t-73 21.5q-56 0 -93 -14z" />
    <glyph glyph-name="Ocircumflexacute" unicode="&#x1ed0;" horiz-adv-x="1338" 
d="M324 1511l268 240h150l273 -240h-194l-148 134h-10l-145 -134h-194zM875 1709l179 200h198l-263 -235zM340 770v-185q0 -200 90 -303.5t239 -103.5q148 0 238 103.5t90 303.5v185q0 201 -90.5 309t-237.5 108q-148 0 -238.5 -108t-90.5 -309zM96 586v182q0 290 154 457
t420 167t419 -167t153 -457v-182q0 -288 -153.5 -450.5t-421.5 -162.5q-267 0 -419 162t-152 451z" />
    <glyph glyph-name="ocircumflexacute" unicode="&#x1ed1;" horiz-adv-x="1126" 
d="M219 1204l268 240h150l273 -240h-194l-148 134h-10l-145 -134h-194zM770 1402l179 200h198l-263 -235zM564 1076q232 0 353.5 -137.5t121.5 -369.5v-76q0 -238 -121 -374.5t-354 -136.5t-354.5 136t-121.5 375v75q0 148 51.5 261t160.5 180t264 67zM564 890
q-66 0 -114.5 -27t-74.5 -74.5t-38 -104t-12 -124.5v-61q0 -68 12 -124t38 -103.5t74 -74.5t115 -27q66 0 114 26.5t73.5 74.5t37 104t11.5 124v61q0 69 -11.5 125t-37.5 104t-73.5 74.5t-113.5 26.5z" />
    <glyph glyph-name="Ocircumflexgrave" unicode="&#x1ed2;" horiz-adv-x="1338" 
d="M1154 1675h-152l-260 234h195zM1015 1511h-194l-148 134h-10l-145 -134h-194l268 240h150zM340 770v-185q0 -200 90 -303.5t239 -103.5q148 0 238 103.5t90 303.5v185q0 201 -90.5 309t-237.5 108q-148 0 -238.5 -108t-90.5 -309zM96 586v182q0 290 154 457t420 167
t419 -167t153 -457v-182q0 -288 -153.5 -450.5t-421.5 -162.5q-267 0 -419 162t-152 451z" />
    <glyph glyph-name="ocircumflexgrave" unicode="&#x1ed3;" horiz-adv-x="1126" 
d="M1049 1368h-152l-260 234h195zM910 1204h-194l-148 134h-10l-145 -134h-194l268 240h150zM564 1076q232 0 353.5 -137.5t121.5 -369.5v-76q0 -238 -121 -374.5t-354 -136.5t-354.5 136t-121.5 375v75q0 148 51.5 261t160.5 180t264 67zM564 890q-66 0 -114.5 -27
t-74.5 -74.5t-38 -104t-12 -124.5v-61q0 -68 12 -124t38 -103.5t74 -74.5t115 -27q66 0 114 26.5t73.5 74.5t37 104t11.5 124v61q0 69 -11.5 125t-37.5 104t-73.5 74.5t-113.5 26.5z" />
    <glyph glyph-name="Ocircumflexhookabove" unicode="&#x1ed4;" horiz-adv-x="1338" 
d="M323 1504l269 227h149l273 -227h-194l-147 124h-11l-145 -124h-194zM811 1954q44 7 90 7q87 0 138.5 -37.5t51.5 -107.5q0 -51 -33 -92.5t-82 -69.5l-70 74q50 33 50 70q0 28 -22 43t-60 15q-35 0 -63 -4v102zM340 770v-185q0 -200 90 -303.5t239 -103.5q148 0 238 103.5
t90 303.5v185q0 201 -90.5 309t-237.5 108q-148 0 -238.5 -108t-90.5 -309zM96 586v182q0 290 154 457t420 167t419 -167t153 -457v-182q0 -288 -153.5 -450.5t-421.5 -162.5q-267 0 -419 162t-152 451z" />
    <glyph glyph-name="ocircumflexhookabove" unicode="&#x1ed5;" horiz-adv-x="1126" 
d="M218 1197l269 227h149l273 -227h-194l-147 124h-11l-145 -124h-194zM706 1647q44 7 90 7q87 0 138.5 -37.5t51.5 -107.5q0 -51 -33 -92.5t-82 -69.5l-70 74q50 33 50 70q0 28 -22 43t-60 15q-35 0 -63 -4v102zM564 1076q232 0 353.5 -137.5t121.5 -369.5v-76
q0 -238 -121 -374.5t-354 -136.5t-354.5 136t-121.5 375v75q0 148 51.5 261t160.5 180t264 67zM564 890q-66 0 -114.5 -27t-74.5 -74.5t-38 -104t-12 -124.5v-61q0 -68 12 -124t38 -103.5t74 -74.5t115 -27q66 0 114 26.5t73.5 74.5t37 104t11.5 124v61q0 69 -11.5 125
t-37.5 104t-73.5 74.5t-113.5 26.5z" />
    <glyph glyph-name="Ocircumflextilde" unicode="&#x1ed6;" horiz-adv-x="1338" 
d="M326 1498l268 231h150l273 -231h-194l-148 131h-10l-145 -131h-194zM497 1792h-133q0 80 48.5 141.5t136.5 61.5q48 0 81 -15.5t70 -48.5q5 -4 16 -14t16.5 -14t15 -10t18.5 -8.5t19 -2.5q33 0 49 30.5t18 68.5h133q0 -86 -52 -146t-135 -60q-56 0 -87.5 14t-61.5 42
q-2 2 -9 8.5t-9.5 8.5t-9 8t-10.5 8t-10.5 6t-11.5 5.5t-11.5 3t-13.5 1.5q-63 0 -67 -88zM340 770v-185q0 -200 90 -303.5t239 -103.5q148 0 238 103.5t90 303.5v185q0 201 -90.5 309t-237.5 108q-148 0 -238.5 -108t-90.5 -309zM96 586v182q0 290 154 457t420 167
t419 -167t153 -457v-182q0 -288 -153.5 -450.5t-421.5 -162.5q-267 0 -419 162t-152 451z" />
    <glyph glyph-name="ocircumflextilde" unicode="&#x1ed7;" horiz-adv-x="1126" 
d="M221 1191l268 231h150l273 -231h-194l-148 131h-10l-145 -131h-194zM392 1485h-133q0 80 48.5 141.5t136.5 61.5q48 0 81 -15.5t70 -48.5q5 -4 16 -14t16.5 -14t15 -10t18.5 -8.5t19 -2.5q33 0 49 30.5t18 68.5h133q0 -86 -52 -146t-135 -60q-56 0 -87.5 14t-61.5 42
q-2 2 -9 8.5t-9.5 8.5t-9 8t-10.5 8t-10.5 6t-11.5 5.5t-11.5 3t-13.5 1.5q-63 0 -67 -88zM564 1076q232 0 353.5 -137.5t121.5 -369.5v-76q0 -238 -121 -374.5t-354 -136.5t-354.5 136t-121.5 375v75q0 148 51.5 261t160.5 180t264 67zM564 890q-66 0 -114.5 -27
t-74.5 -74.5t-38 -104t-12 -124.5v-61q0 -68 12 -124t38 -103.5t74 -74.5t115 -27q66 0 114 26.5t73.5 74.5t37 104t11.5 124v61q0 69 -11.5 125t-37.5 104t-73.5 74.5t-113.5 26.5z" />
    <glyph glyph-name="Ocircumflexdotbelow" unicode="&#x1ed8;" horiz-adv-x="1338" 
d="M549 -267q0 53 35 88.5t85 35.5q54 0 90 -35.5t36 -88.5q0 -52 -36 -86.5t-90 -34.5q-50 0 -85 35t-35 86zM325 1502l273 240h149l269 -240h-194l-145 134h-11l-147 -134h-194zM340 770v-185q0 -200 90 -303.5t239 -103.5q148 0 238 103.5t90 303.5v185q0 201 -90.5 309
t-237.5 108q-148 0 -238.5 -108t-90.5 -309zM96 586v182q0 290 154 457t420 167t419 -167t153 -457v-182q0 -288 -153.5 -450.5t-421.5 -162.5q-267 0 -419 162t-152 451z" />
    <glyph glyph-name="ocircumflexdotbelow" unicode="&#x1ed9;" horiz-adv-x="1126" 
d="M259 1221l221 302h162l211 -303h-185l-105 182h-7l-115 -181h-182zM564 1076q232 0 353.5 -137.5t121.5 -369.5v-76q0 -238 -121 -374.5t-354 -136.5t-354.5 136t-121.5 375v75q0 148 51.5 261t160.5 180t264 67zM564 890q-66 0 -114.5 -27t-74.5 -74.5t-38 -104
t-12 -124.5v-61q0 -68 12 -124t38 -103.5t74 -74.5t115 -27q66 0 114 26.5t73.5 74.5t37 104t11.5 124v61q0 69 -11.5 125t-37.5 104t-73.5 74.5t-113.5 26.5zM444 -267q0 53 35 88.5t85 35.5q54 0 90 -35.5t36 -88.5q0 -52 -36 -86.5t-90 -34.5q-50 0 -85 35t-35 86z" />
    <glyph glyph-name="Ohornacute" unicode="&#x1eda;" horiz-adv-x="1357" 
d="M532 1507l262 213h249l-304 -213h-207zM1242 586q0 -288 -153.5 -450.5t-421.5 -162.5q-267 0 -419 162t-152 451v182q0 290 154 457t420 167q81 0 156.5 -20t138.5 -40t113 -20q78 0 106.5 37.5t28.5 107.5v110h194v-129q0 -134 -68.5 -209t-193.5 -75l-4 -5
q43 -64 72 -167.5t29 -213.5v-182zM340 770v-186q0 -200 90 -303.5t239 -103.5q148 0 238.5 103.5t90.5 303.5v186q0 201 -91 309t-238 108q-148 0 -238.5 -108t-90.5 -309z" />
    <glyph glyph-name="ohornacute" unicode="&#x1edb;" horiz-adv-x="1145" 
d="M641 1219h-195l198 286h240zM564 -18q-218 0 -347 127.5t-129 356.5v130q0 216 132 348t344 132q62 0 141 -19t130 -19q68 0 93.5 33t25.5 103v157h194v-169q0 -118 -48 -190t-150 -84v-9q37 -54 63 -128.5t26 -153.5v-131q0 -228 -130 -356t-345 -128zM564 890
q-112 0 -175.5 -85t-63.5 -217v-116q0 -134 61.5 -218t177.5 -84q114 0 175 84t61 218v116q0 133 -62 217.5t-174 84.5z" />
    <glyph glyph-name="Ohorngrave" unicode="&#x1edc;" horiz-adv-x="1357" 
d="M795 1507h-200l-298 208h242zM1242 586q0 -288 -153.5 -450.5t-421.5 -162.5q-267 0 -419 162t-152 451v182q0 290 154 457t420 167q81 0 156.5 -20t138.5 -40t113 -20q78 0 106.5 37.5t28.5 107.5v110h194v-129q0 -134 -68.5 -209t-193.5 -75l-4 -5q43 -64 72 -167.5
t29 -213.5v-182zM340 770v-186q0 -200 90 -303.5t239 -103.5q148 0 238.5 103.5t90.5 303.5v186q0 201 -91 309t-238 108q-148 0 -238.5 -108t-90.5 -309z" />
    <glyph glyph-name="ohorngrave" unicode="&#x1edd;" horiz-adv-x="1145" 
d="M696 1222h-195l-248 283h240zM564 -18q-218 0 -347 127.5t-129 356.5v130q0 216 132 348t344 132q62 0 141 -19t130 -19q68 0 93.5 33t25.5 103v157h194v-169q0 -118 -48 -190t-150 -84v-9q37 -54 63 -128.5t26 -153.5v-131q0 -228 -130 -356t-345 -128zM564 890
q-112 0 -175.5 -85t-63.5 -217v-116q0 -134 61.5 -218t177.5 -84q114 0 175 84t61 218v116q0 133 -62 217.5t-174 84.5z" />
    <glyph glyph-name="Ohornhookabove" unicode="&#x1ede;" horiz-adv-x="1357" 
d="M526 1664v106q44 17 107 17q95 0 153 -42.5t58 -120.5q0 -111 -146 -170l-74 88q34 10 59 29t25 44q0 60 -92 60q-50 0 -90 -11zM1242 586q0 -288 -153.5 -450.5t-421.5 -162.5q-267 0 -419 162t-152 451v182q0 290 154 457t420 167q81 0 156.5 -20t138.5 -40t113 -20
q78 0 106.5 37.5t28.5 107.5v110h194v-129q0 -134 -68.5 -209t-193.5 -75l-4 -5q43 -64 72 -167.5t29 -213.5v-182zM340 770v-186q0 -200 90 -303.5t239 -103.5q148 0 238.5 103.5t90.5 303.5v186q0 201 -91 309t-238 108q-148 0 -238.5 -108t-90.5 -309z" />
    <glyph glyph-name="ohornhookabove" unicode="&#x1edf;" horiz-adv-x="1145" 
d="M564 -18q-218 0 -347 127.5t-129 356.5v130q0 216 132 348t344 132q62 0 141 -19t130 -19q68 0 93.5 33t25.5 103v157h194v-169q0 -118 -48 -190t-150 -84v-9q37 -54 63 -128.5t26 -153.5v-131q0 -228 -130 -356t-345 -128zM564 890q-112 0 -175.5 -85t-63.5 -217v-116
q0 -134 61.5 -218t177.5 -84q114 0 175 84t61 218v116q0 133 -62 217.5t-174 84.5zM425 1436v115q43 18 111 18q104 0 164 -50t60 -137q0 -75 -42.5 -121.5t-121.5 -88.5l-72 93q51 29 73 53.5t22 53.5q0 35 -28 56.5t-73 21.5q-56 0 -93 -14z" />
    <glyph glyph-name="Ohorntilde" unicode="&#x1ee0;" horiz-adv-x="1357" 
d="M1242 586q0 -288 -153.5 -450.5t-421.5 -162.5q-267 0 -419 162t-152 451v182q0 290 154 457t420 167q81 0 156.5 -20t138.5 -40t113 -20q78 0 106.5 37.5t28.5 107.5v110h194v-129q0 -134 -68.5 -209t-193.5 -75l-4 -5q43 -64 72 -167.5t29 -213.5v-182zM340 770v-186
q0 -200 90 -303.5t239 -103.5q148 0 238.5 103.5t90.5 303.5v186q0 201 -91 309t-238 108q-148 0 -238.5 -108t-90.5 -309zM648 1531q-2 2 -13.5 13t-16 14.5t-14 10t-18.5 9t-19 2.5q-60 0 -64 -88h-128q0 84 45.5 145.5t131.5 61.5q46 0 78.5 -16t68.5 -49
q5 -4 18.5 -17.5t19.5 -18t17.5 -9.5t23.5 -5q32 0 47.5 30t18.5 69h128q0 -84 -50.5 -147t-130.5 -63q-53 0 -83.5 14.5t-59.5 43.5z" />
    <glyph glyph-name="ohorntilde" unicode="&#x1ee1;" horiz-adv-x="1145" 
d="M530 1231l-7 7l-7 7t-7 6.5t-8 7t-7.5 6t-8.5 6t-8.5 4t-9.5 3.5t-9.5 2t-10.5 1q-66 0 -70 -99h-140q0 106 50.5 179t148.5 73q45 0 79.5 -18t73.5 -57q4 -4 13 -13.5t13 -13l12 -10.5t14 -9.5t14 -5t17 -2.5q34 0 50.5 33.5t19.5 77.5h139q0 -100 -56.5 -176
t-146.5 -76q-51 0 -84 17.5t-64 49.5zM564 -18q-218 0 -347 127.5t-129 356.5v130q0 216 132 348t344 132q62 0 141 -19t130 -19q68 0 93.5 33t25.5 103v157h194v-169q0 -118 -48 -190t-150 -84v-9q37 -54 63 -128.5t26 -153.5v-131q0 -228 -130 -356t-345 -128zM564 890
q-112 0 -175.5 -85t-63.5 -217v-116q0 -134 61.5 -218t177.5 -84q114 0 175 84t61 218v116q0 133 -62 217.5t-174 84.5z" />
    <glyph glyph-name="Ohorndotbelow" unicode="&#x1ee2;" horiz-adv-x="1357" 
d="M549 -267q0 53 35 88.5t85 35.5q54 0 90 -35.5t36 -88.5q0 -52 -36 -86.5t-90 -34.5q-50 0 -85 35t-35 86zM1242 586q0 -288 -153.5 -450.5t-421.5 -162.5q-267 0 -419 162t-152 451v182q0 290 154 457t420 167q81 0 156.5 -20t138.5 -40t113 -20q78 0 106.5 37.5
t28.5 107.5v110h194v-129q0 -134 -68.5 -209t-193.5 -75l-4 -5q43 -64 72 -167.5t29 -213.5v-182zM340 770v-186q0 -200 90 -303.5t239 -103.5q148 0 238.5 103.5t90.5 303.5v186q0 201 -91 309t-238 108q-148 0 -238.5 -108t-90.5 -309z" />
    <glyph glyph-name="ohorndotbelow" unicode="&#x1ee3;" horiz-adv-x="1145" 
d="M444 -267q0 53 35 88.5t85 35.5q54 0 90 -35.5t36 -88.5q0 -52 -36 -86.5t-90 -34.5q-50 0 -85 35t-35 86zM564 -18q-218 0 -347 127.5t-129 356.5v130q0 216 132 348t344 132q62 0 141 -19t130 -19q68 0 93.5 33t25.5 103v157h194v-169q0 -118 -48 -190t-150 -84v-9
q37 -54 63 -128.5t26 -153.5v-131q0 -228 -130 -356t-345 -128zM564 890q-112 0 -175.5 -85t-63.5 -217v-116q0 -134 61.5 -218t177.5 -84q114 0 175 84t61 218v116q0 133 -62 217.5t-174 84.5z" />
    <glyph glyph-name="Udotbelow" unicode="&#x1ee4;" horiz-adv-x="1352" 
d="M556 -267q0 53 35 88.5t85 35.5q54 0 90 -35.5t36 -88.5q0 -52 -36 -86.5t-90 -34.5q-50 0 -85 35t-35 86zM377 1365v-873q0 -146 80.5 -228.5t218.5 -82.5q137 0 218.5 83t81.5 228v873h241v-892q0 -226 -148.5 -363t-392.5 -137t-392.5 138t-148.5 365v889h242z" />
    <glyph glyph-name="udotbelow" unicode="&#x1ee5;" horiz-adv-x="1181" 
d="M471 -267q0 53 35 88.5t85 35.5q54 0 90 -35.5t36 -88.5q0 -52 -36 -86.5t-90 -34.5q-50 0 -85 35t-35 86zM1043 1058v-1058h-231v150h-10q-29 -70 -107 -118t-199 -48q-168 0 -267 95.5t-99 276.5v702h237v-638q0 -126 60.5 -180t156.5 -54q99 0 161 62.5t62 174.5v635
h236z" />
    <glyph glyph-name="Uhookabove" unicode="&#x1ee6;" horiz-adv-x="1352" 
d="M377 1365v-873q0 -146 80.5 -228.5t218.5 -82.5q137 0 218.5 83t81.5 228v873h241v-892q0 -226 -148.5 -363t-392.5 -137t-392.5 138t-148.5 365v889h242zM533 1664v106q44 17 107 17q95 0 153 -42.5t58 -120.5q0 -111 -146 -170l-74 88q34 10 59 29t25 44q0 60 -92 60
q-50 0 -90 -11z" />
    <glyph glyph-name="uhookabove" unicode="&#x1ee7;" horiz-adv-x="1181" 
d="M1043 1058v-1058h-231v150h-10q-29 -70 -107 -118t-199 -48q-168 0 -267 95.5t-99 276.5v702h237v-638q0 -126 60.5 -180t156.5 -54q99 0 161 62.5t62 174.5v635h236zM452 1436v115q43 18 111 18q104 0 164 -50t60 -137q0 -75 -42.5 -121.5t-121.5 -88.5l-72 93
q51 29 73 53.5t22 53.5q0 35 -28 56.5t-73 21.5q-56 0 -93 -14z" />
    <glyph glyph-name="Uhornacute" unicode="&#x1ee8;" horiz-adv-x="1437" 
d="M539 1507l262 213h249l-304 -213h-207zM676 -26q-244 0 -392.5 138t-148.5 365v888h242v-872q0 -146 80.5 -228.5t218.5 -82.5q137 0 218.5 83t81.5 228v872h243q66 0 92.5 34.5t26.5 102.5v116h193v-136q0 -126 -66 -205t-192 -79h-56v-724q0 -226 -148.5 -363
t-392.5 -137z" />
    <glyph glyph-name="uhornacute" unicode="&#x1ee9;" horiz-adv-x="1304" 
d="M668 1219h-195l198 286h240zM799 176q-26 -76 -105.5 -134t-206.5 -58q-166 0 -261.5 86.5t-95.5 265.5v722h237v-663q0 -115 56.5 -164.5t146.5 -49.5q100 0 168.5 65.5t68.5 163.5v648h211q65 0 89 34t24 103v136h194v-156q0 -125 -66 -204t-193 -79h-23v-892h-232v176
h-12z" />
    <glyph glyph-name="Uhorngrave" unicode="&#x1eea;" horiz-adv-x="1437" 
d="M802 1507h-200l-298 208h242zM676 -26q-244 0 -392.5 138t-148.5 365v888h242v-872q0 -146 80.5 -228.5t218.5 -82.5q137 0 218.5 83t81.5 228v872h243q66 0 92.5 34.5t26.5 102.5v116h193v-136q0 -126 -66 -205t-192 -79h-56v-724q0 -226 -148.5 -363t-392.5 -137z" />
    <glyph glyph-name="uhorngrave" unicode="&#x1eeb;" horiz-adv-x="1304" 
d="M723 1222h-195l-248 283h240zM799 176q-26 -76 -105.5 -134t-206.5 -58q-166 0 -261.5 86.5t-95.5 265.5v722h237v-663q0 -115 56.5 -164.5t146.5 -49.5q100 0 168.5 65.5t68.5 163.5v648h211q65 0 89 34t24 103v136h194v-156q0 -125 -66 -204t-193 -79h-23v-892h-232
v176h-12z" />
    <glyph glyph-name="Uhornhookabove" unicode="&#x1eec;" horiz-adv-x="1437" 
d="M533 1664v106q44 17 107 17q95 0 153 -42.5t58 -120.5q0 -111 -146 -170l-74 88q34 10 59 29t25 44q0 60 -92 60q-50 0 -90 -11zM676 -26q-244 0 -392.5 138t-148.5 365v888h242v-872q0 -146 80.5 -228.5t218.5 -82.5q137 0 218.5 83t81.5 228v872h243q66 0 92.5 34.5
t26.5 102.5v116h193v-136q0 -126 -66 -205t-192 -79h-56v-724q0 -226 -148.5 -363t-392.5 -137z" />
    <glyph glyph-name="uhornhookabove" unicode="&#x1eed;" horiz-adv-x="1304" 
d="M452 1436v115q43 18 111 18q104 0 164 -50t60 -137q0 -75 -42.5 -121.5t-121.5 -88.5l-72 93q51 29 73 53.5t22 53.5q0 35 -28 56.5t-73 21.5q-56 0 -93 -14zM799 176q-26 -76 -105.5 -134t-206.5 -58q-166 0 -261.5 86.5t-95.5 265.5v722h237v-663q0 -115 56.5 -164.5
t146.5 -49.5q100 0 168.5 65.5t68.5 163.5v648h211q65 0 89 34t24 103v136h194v-156q0 -125 -66 -204t-193 -79h-23v-892h-232v176h-12z" />
    <glyph glyph-name="Uhorntilde" unicode="&#x1eee;" horiz-adv-x="1437" 
d="M655 1531q-2 2 -13.5 13t-16 14.5t-14 10t-18.5 9t-19 2.5q-60 0 -64 -88h-128q0 84 45.5 145.5t131.5 61.5q46 0 78.5 -16t68.5 -49q5 -4 18.5 -17.5t19.5 -18t17.5 -9.5t23.5 -5q32 0 47.5 30t18.5 69h128q0 -84 -50.5 -147t-130.5 -63q-53 0 -83.5 14.5t-59.5 43.5z
M676 -26q-244 0 -392.5 138t-148.5 365v888h242v-872q0 -146 80.5 -228.5t218.5 -82.5q137 0 218.5 83t81.5 228v872h243q66 0 92.5 34.5t26.5 102.5v116h193v-136q0 -126 -66 -205t-192 -79h-56v-724q0 -226 -148.5 -363t-392.5 -137z" />
    <glyph glyph-name="uhorntilde" unicode="&#x1eef;" horiz-adv-x="1304" 
d="M557 1231l-7 7l-7 7t-7 6.5t-8 7t-7.5 6t-8.5 6t-8.5 4t-9.5 3.5t-9.5 2t-10.5 1q-66 0 -70 -99h-140q0 106 50.5 179t148.5 73q45 0 79.5 -18t73.5 -57q4 -4 13 -13.5t13 -13l12 -10.5t14 -9.5t14 -5t17 -2.5q34 0 50.5 33.5t19.5 77.5h139q0 -100 -56.5 -176
t-146.5 -76q-51 0 -84 17.5t-64 49.5zM799 176q-26 -76 -105.5 -134t-206.5 -58q-166 0 -261.5 86.5t-95.5 265.5v722h237v-663q0 -115 56.5 -164.5t146.5 -49.5q100 0 168.5 65.5t68.5 163.5v648h211q65 0 89 34t24 103v136h194v-156q0 -125 -66 -204t-193 -79h-23v-892
h-232v176h-12z" />
    <glyph glyph-name="Uhorndotbelow" unicode="&#x1ef0;" horiz-adv-x="1437" 
d="M556 -267q0 53 35 88.5t85 35.5q54 0 90 -35.5t36 -88.5q0 -52 -36 -86.5t-90 -34.5q-50 0 -85 35t-35 86zM676 -26q-244 0 -392.5 138t-148.5 365v888h242v-872q0 -146 80.5 -228.5t218.5 -82.5q137 0 218.5 83t81.5 228v872h243q66 0 92.5 34.5t26.5 102.5v116h193
v-136q0 -126 -66 -205t-192 -79h-56v-724q0 -226 -148.5 -363t-392.5 -137z" />
    <glyph glyph-name="uhorndotbelow" unicode="&#x1ef1;" horiz-adv-x="1304" 
d="M471 -267q0 53 35 88.5t85 35.5q54 0 90 -35.5t36 -88.5q0 -52 -36 -86.5t-90 -34.5q-50 0 -85 35t-35 86zM799 176q-26 -76 -105.5 -134t-206.5 -58q-166 0 -261.5 86.5t-95.5 265.5v722h237v-663q0 -115 56.5 -164.5t146.5 -49.5q100 0 168.5 65.5t68.5 163.5v648h211
q65 0 89 34t24 103v136h194v-156q0 -125 -66 -204t-193 -79h-23v-892h-232v176h-12z" />
    <glyph glyph-name="u20AB" unicode="&#x20ab;" horiz-adv-x="1144" 
d="M942 -308h-754v158h754v-158zM539 881q-107 0 -169.5 -77.5t-62.5 -217.5v-112q0 -142 63.5 -219.5t173.5 -77.5q109 0 174.5 76t65.5 208v152q0 120 -68.5 194t-176.5 74zM778 169q-24 -76 -107 -129.5t-206 -53.5q-182 0 -290.5 122.5t-108.5 334.5v174q0 210 109 333
t294 123q118 0 196.5 -49t106.5 -125h12v263h-241v159h241v150h236v-150h124v-159h-124v-1162h-231v169h-11z" />
    </font>
</defs>
</svg>
